<?xml version="1.0" encoding="UTF-8" standalone="no"?><svg xmlns="http://www.w3.org/2000/svg" width="200" height="192" viewBox="0 0 46.712889 44.919997"><title>TypeTip logo</title><path d="M3.5.5c-1.662 0-3 1.338-3 3v28.643c0 1.662 1.338 3 3 3h8.785v8.57l8.57-8.57h22.358c1.662 0 3-1.338 3-3V3.5c0-1.662-1.338-3-3-3H3.5z" fill-rule="evenodd" stroke="#000"/><path d="M25.23 10.03v14.88h2.56q1.374 0 1.95.538.593.52.593 1.373 0 .836-.594 1.374-.576.52-1.95.52h-8.905q-1.373 0-1.967-.52-.575-.538-.575-1.392 0-.835.575-1.354.594-.538 1.967-.538h2.542V10.03h-4.12v3.598q0 1.373-.537 1.967-.52.575-1.374.575-.834 0-1.373-.575-.52-.594-.52-1.967v-7.42l19.706.017v7.403q0 1.374-.54 1.967-.52.575-1.372.575-.835 0-1.373-.575-.52-.593-.52-1.967v-3.6H25.23z" fill="#fff"/></svg>